<?xml version="1.0" standalone="no"?>
<!DOCTYPE svg PUBLIC "-//W3C//DTD SVG 20010904//EN"
 "http://www.w3.org/TR/2001/REC-SVG-20010904/DTD/svg10.dtd">
<svg version="1.0" xmlns="http://www.w3.org/2000/svg"
 width="576.000000pt" height="576.000000pt" viewBox="0 0 576.000000 576.000000"
 preserveAspectRatio="xMidYMid meet">
<metadata>
Created by potrace 1.14, written by Peter Selinger 2001-2017
</metadata>
<g transform="translate(0.000000,576.000000) scale(0.100000,-0.100000)"
fill="#000000" stroke="none">
<path d="M727 4804 c-3 -4 -43 -6 -89 -7 -46 0 -96 -4 -113 -9 -16 -4 -43 -11
-60 -13 -16 -3 -68 -24 -115 -47 -151 -74 -271 -218 -326 -393 -18 -58 -19
-111 -19 -1450 0 -764 4 -1403 9 -1420 4 -16 9 -37 11 -45 2 -8 4 -16 5 -17 2
-2 3 -6 5 -10 37 -137 170 -289 315 -363 108 -55 238 -78 390 -69 8 1 44 0 80
0 36 -1 117 -2 180 -2 63 0 120 0 125 0 6 -1 28 0 50 0 22 1 47 0 55 0 16 -1
104 0 160 2 19 1 41 1 48 1 15 -1 248 -1 265 0 6 0 41 0 77 -1 36 -1 116 -1
178 -1 62 0 116 -2 121 -4 4 -3 13 -1 19 3 7 4 33 5 57 1 25 -4 45 -4 45 -1 0
3 27 6 60 6 33 0 60 -2 60 -5 0 -3 73 -4 162 -2 90 2 192 2 228 1 36 0 71 -1
78 -1 13 1 235 1 255 1 6 -1 30 0 52 0 22 1 47 0 55 0 16 -1 104 0 160 2 19 1
41 1 48 1 15 -1 248 -1 265 0 6 0 41 0 77 -1 36 -1 116 -1 178 -1 62 0 116 -2
121 -4 4 -3 13 -1 19 3 7 4 33 5 57 1 25 -4 45 -4 45 -1 0 3 27 6 60 6 33 0
60 -2 60 -5 0 -3 73 -4 162 -2 90 2 192 2 228 1 36 0 71 -1 78 -1 13 1 235 1
255 1 6 -1 30 0 52 0 22 1 47 0 55 -1 79 -7 319 43 340 71 3 3 23 15 44 26 60
30 178 152 219 226 20 36 47 94 59 130 l23 64 0 1385 c0 762 -4 1405 -8 1430
-10 54 -47 147 -84 209 -48 82 -164 186 -257 231 -107 52 -130 58 -266 66 -47
3 -103 5 -125 4 -22 -1 -44 -2 -50 -1 -5 0 -64 0 -130 0 -66 0 -149 1 -185 2
-36 0 -72 1 -80 0 -53 -3 -195 1 -202 5 -4 3 -8 2 -8 -3 0 -4 -27 -8 -60 -8
-33 0 -60 2 -60 5 0 6 -109 4 -116 -2 -2 -3 -24 -2 -49 2 -24 4 -49 4 -55 0
-6 -3 -32 -4 -58 -1 -26 3 -81 4 -122 1 -41 -3 -96 -2 -122 1 -26 3 -52 2 -58
-1 -6 -4 -31 -4 -55 0 -25 4 -45 4 -45 1 0 -3 -27 -6 -60 -6 -33 0 -60 2 -60
5 0 3 -30 4 -67 3 -147 -5 -323 -4 -331 1 -4 2 -14 1 -20 -3 -7 -4 -33 -5 -57
-1 -25 4 -45 4 -45 1 0 -3 -27 -6 -60 -6 -33 0 -60 2 -60 5 0 3 -81 5 -180 5
-99 0 -180 -2 -180 -5 0 -3 -27 -5 -60 -5 -33 0 -60 2 -60 5 0 6 -109 4 -116
-2 -2 -3 -24 -2 -49 2 -24 4 -50 3 -57 -1 -6 -4 -15 -6 -20 -3 -6 4 -194 6
-258 3 -8 -1 -44 0 -80 0 -36 1 -117 2 -180 2 -63 0 -119 0 -125 0 -5 1 -28 0
-50 0 -22 -1 -47 0 -55 0 -16 1 -104 0 -160 -2 -19 -1 -39 -1 -45 -1 -5 1 -64
1 -130 1 -203 1 -248 2 -255 6 -4 3 -10 2 -13 -1z m200 -647 c71 1 130 3 133
4 26 5 131 -6 155 -17 53 -25 68 -74 65 -209 -1 -27 -1 -57 -1 -65 1 -8 1 -33
0 -55 0 -22 0 -47 0 -55 4 -79 -2 -149 -15 -176 -18 -38 -68 -65 -121 -65
-102 1 -127 2 -135 7 -4 3 -8 2 -8 -3 0 -4 -27 -8 -60 -8 -33 0 -60 2 -60 5 0
3 -33 4 -72 3 -80 -2 -124 13 -148 49 -19 30 -26 196 -18 428 4 96 21 132 73
149 37 12 79 18 82 11 2 -3 60 -4 130 -3z m835 -2 c4 4 63 6 108 4 8 0 38 0
65 0 52 1 62 1 130 0 35 0 62 -2 101 -7 23 -4 62 -54 68 -87 7 -35 9 -238 4
-385 -3 -66 -8 -91 -23 -111 -24 -33 -63 -50 -106 -49 -29 1 -63 1 -186 1 -10
0 -47 0 -83 -1 -158 -1 -199 11 -224 65 -12 25 -22 121 -16 160 0 6 0 64 0
130 -2 154 -2 154 5 191 4 25 75 111 75 91 0 -3 10 -3 23 2 12 5 29 5 38 0 9
-4 18 -6 21 -4z m1078 4 c0 3 27 6 60 6 33 0 60 -2 60 -5 0 -3 33 -4 72 -3 80
2 124 -13 148 -49 19 -30 26 -196 18 -428 -5 -136 -36 -162 -195 -161 -54 1
-123 2 -153 2 -30 0 -59 0 -65 -1 -5 -1 -37 -1 -70 0 -68 2 -114 20 -134 52
-15 25 -25 132 -20 228 0 8 0 33 0 55 -1 22 -1 47 0 55 0 8 0 42 -1 75 0 33 1
70 4 81 13 59 68 96 136 92 22 -1 42 1 45 3 3 3 25 3 50 -1 25 -4 45 -4 45 -1z
m1217 -4 c40 -6 91 -43 95 -69 5 -39 7 -66 7 -101 1 -68 1 -78 0 -130 0 -27 0
-57 0 -65 1 -8 1 -33 0 -55 0 -22 0 -46 0 -52 0 -7 1 -23 2 -35 2 -36 -4 -50
-35 -85 -27 -30 -60 -44 -111 -44 -11 -1 -74 0 -140 1 -66 0 -124 0 -130 0
-39 -6 -135 4 -160 16 -57 27 -65 57 -65 269 -1 219 4 278 25 306 26 34 62 49
113 47 23 -1 44 1 46 3 6 6 304 1 353 -6z m929 2 c70 -5 98 -20 118 -62 12
-25 22 -128 16 -160 -1 -5 -2 -13 -2 -16 3 -20 3 -166 0 -239 -5 -136 -37
-162 -195 -161 -54 1 -123 2 -153 2 -30 0 -59 0 -65 -1 -37 -6 -135 4 -160 16
-59 28 -70 77 -64 297 0 20 0 151 -1 172 0 11 0 28 -1 38 0 29 22 71 50 92 21
16 45 20 115 22 49 2 90 4 92 5 3 4 175 0 250 -5z m-3930 -958 c10 10 131 -2
159 -15 53 -25 68 -74 65 -209 -1 -27 -1 -57 -1 -65 1 -8 1 -33 0 -55 0 -22 0
-47 0 -55 4 -79 -2 -149 -15 -176 -19 -39 -67 -64 -126 -64 -24 0 -50 -1 -58
-1 -8 -1 -31 -1 -50 0 -57 2 -144 3 -157 2 -7 -1 -19 -1 -25 -2 -87 -6 -163
15 -188 53 -13 22 -23 125 -20 213 1 22 1 47 1 55 -2 52 1 144 5 152 3 4 1 8
-4 8 -9 0 0 68 13 100 15 38 58 55 149 57 49 2 90 4 92 5 1 2 37 1 79 -2 42
-3 79 -3 81 -1z m960 0 c10 10 131 -2 159 -15 57 -27 65 -59 65 -269 1 -224
-4 -278 -25 -306 -21 -28 -63 -50 -92 -50 -10 1 -26 1 -35 1 -16 1 -124 1
-160 1 -7 0 -44 -1 -83 -1 -161 -2 -203 10 -229 65 -12 25 -22 128 -16 160 1
6 2 13 1 17 -7 53 0 304 10 326 23 52 55 67 153 69 49 2 90 4 92 5 1 2 37 1
79 -2 42 -3 79 -3 81 -1z m796 -3 c4 3 54 5 98 3 8 0 38 0 65 1 135 3 184 -12
209 -65 12 -25 22 -128 16 -160 -1 -5 -2 -13 -2 -16 3 -20 3 -166 0 -239 -2
-66 -8 -91 -23 -111 -21 -28 -63 -50 -92 -50 -10 1 -26 1 -35 1 -20 1 -139 1
-165 1 -61 -2 -106 0 -113 4 -5 3 -11 1 -14 -3 -7 -11 -113 3 -143 19 -36 19
-52 66 -50 147 1 39 0 72 -3 72 -3 0 -5 27 -5 60 0 33 2 60 5 60 3 0 5 27 5
60 0 33 -3 60 -6 60 -9 0 8 86 22 108 20 31 60 49 119 51 30 2 57 4 59 6 1 2
13 0 26 -5 13 -5 25 -7 27 -4z m960 0 c4 3 54 5 98 3 8 0 38 0 65 1 135 3 184
-12 209 -65 12 -25 22 -123 16 -160 -1 -5 -1 -35 -1 -65 0 -30 1 -99 2 -153 1
-159 -25 -190 -161 -195 -146 -5 -350 -3 -385 4 -38 7 -72 35 -85 69 -5 13 -8
55 -7 94 1 39 0 71 -3 71 -3 0 -5 27 -5 60 0 33 4 60 8 60 5 0 6 4 3 8 -5 8
-6 33 -7 135 0 49 25 99 59 118 15 9 52 17 82 18 30 2 57 4 59 6 1 2 13 0 26
-5 13 -5 25 -7 27 -4z m960 0 c4 3 54 5 98 3 8 0 38 0 65 1 135 3 184 -12 209
-65 12 -25 22 -128 16 -160 -1 -5 -2 -13 -2 -16 3 -20 3 -166 0 -239 -3 -93
-19 -127 -69 -149 -22 -10 -137 -14 -239 -10 -8 1 -35 0 -60 -1 -94 -3 -196 7
-218 20 -38 25 -59 101 -53 188 1 6 1 18 2 25 1 6 1 35 0 62 0 28 0 57 0 65 1
8 1 31 0 50 -6 181 20 224 139 229 30 2 57 4 59 6 1 2 13 0 26 -5 13 -5 25 -7
27 -4z m-3805 -959 c71 1 130 3 133 4 26 5 131 -6 155 -17 57 -27 65 -59 65
-269 1 -224 -4 -278 -25 -306 -31 -41 -65 -51 -172 -50 -54 1 -123 2 -153 2
-30 0 -59 0 -65 -1 -37 -6 -135 4 -160 16 -57 27 -65 57 -65 269 -1 219 4 278
25 307 20 27 55 44 105 50 14 2 26 1 27 -2 2 -3 60 -4 130 -3z m835 -2 c4 4
67 6 108 4 8 -1 38 -1 65 0 28 0 57 0 65 0 8 -1 31 0 50 1 40 1 242 1 340 -1
36 0 72 -1 80 0 53 3 195 -1 202 -5 4 -3 8 -2 8 3 0 4 27 8 60 8 33 0 60 -2
60 -5 0 -4 107 -4 120 1 3 1 8 1 11 1 3 -1 24 -1 45 -1 62 -1 131 -2 242 -4
56 -1 102 0 102 3 0 3 27 5 60 5 33 0 60 -2 60 -5 0 -6 109 -4 116 2 2 3 24 2
49 -2 24 -4 50 -3 57 1 6 4 15 6 18 4 8 -5 72 -7 200 -6 201 2 237 -7 264 -64
12 -25 22 -128 16 -160 -1 -5 -2 -13 -2 -16 3 -20 3 -166 0 -239 -2 -66 -8
-91 -23 -111 -24 -33 -63 -50 -106 -49 -19 1 -63 1 -99 1 -36 -1 -98 0 -138 2
-39 1 -72 0 -72 -3 0 -3 -27 -5 -60 -5 -33 0 -60 2 -60 5 0 4 -107 4 -120 -1
-3 -1 -8 -1 -11 -1 -3 1 -24 1 -45 1 -62 1 -131 2 -242 4 -56 1 -102 0 -102
-3 0 -3 -27 -5 -60 -5 -33 0 -60 2 -60 5 0 6 -109 4 -116 -2 -2 -3 -24 -2 -49
2 -24 4 -49 4 -55 0 -6 -3 -32 -4 -58 -1 -26 3 -81 4 -122 1 -41 -3 -96 -2
-122 1 -26 3 -52 2 -58 -1 -6 -4 -31 -4 -55 0 -25 4 -45 4 -45 1 0 -3 -27 -6
-60 -6 -33 0 -60 2 -60 5 0 3 -26 3 -57 0 -32 -3 -107 -3 -166 0 -60 3 -111 3
-113 1 -9 -10 -131 2 -159 15 -57 27 -66 63 -64 264 0 58 1 110 0 115 0 6 0
39 -1 75 -1 36 3 76 8 90 10 24 72 91 72 77 0 -3 10 -3 23 2 12 5 29 5 38 0 9
-4 18 -6 21 -4z m3224 2 c70 -5 98 -20 118 -62 12 -25 22 -128 16 -160 -1 -5
-2 -13 -2 -16 3 -20 3 -166 0 -239 -5 -136 -37 -162 -195 -161 -54 1 -123 2
-153 2 -30 0 -59 0 -65 -1 -37 -6 -135 4 -160 16 -60 28 -65 55 -64 309 0 83
0 165 -1 184 -1 43 16 82 49 106 21 16 45 20 115 22 49 2 90 4 92 5 3 4 175 0
250 -5z"/>
</g>
</svg>
